<svg xmlns="http://www.w3.org/2000/svg" width="24" height="20" viewBox="0 0 24 20"><path fill="#db3727" d="M6 6c0-1.1-.9-2-2-2s-2 .9-2 2 .9 2 2 2 2-.9 2-2zm8 8c0-1.1-.9-2-2-2s-2 .9-2 2 .9 2 2 2 2-.9 2-2zm8-8c0-1.1-.9-2-2-2s-2 .9-2 2 .9 2 2 2 2-.9 2-2zm-9 11.9V20h-2v-2.1c-1.7-.4-3-2-3-3.9s1.3-3.4 3-3.9V0h2v10.1c1.7.4 3 2 3 3.9s-1.3 3.4-3 3.9zm-10-8c-1.7-.5-3-2-3-3.9s1.3-3.4 3-3.9V0h2v2.1c1.7.4 3 2 3 3.9S6.7 9.4 5 9.9V20H3V9.9zm16 0c-1.7-.5-3-2-3-3.9s1.3-3.4 3-3.9V0h2v2.1c1.7.4 3 2 3 3.9s-1.3 3.4-3 3.9V20h-2V9.9z"/></svg>
